<?xml version="1.0" encoding="UTF-8" standalone="no"?>
<svg
   width="300"
   height="300"
   viewBox="0 0 300 300"
   fill="none"
   version="1.1"
   id="svg3"
   sodipodi:docname="ic_launcher-web.svg"
   inkscape:version="1.3.2 (091e20ef0f, 2023-11-25)"
   xmlns:inkscape="http://www.inkscape.org/namespaces/inkscape"
   xmlns:sodipodi="http://sodipodi.sourceforge.net/DTD/sodipodi-0.dtd"
   xmlns="http://www.w3.org/2000/svg"
   xmlns:svg="http://www.w3.org/2000/svg">
  <sodipodi:namedview
     id="namedview3"
     pagecolor="#ffffff"
     bordercolor="#000000"
     borderopacity="0.25"
     inkscape:showpageshadow="2"
     inkscape:pageopacity="0.0"
     inkscape:pagecheckerboard="0"
     inkscape:deskcolor="#d1d1d1"
     inkscape:zoom="3.6655844"
     inkscape:cx="156.04606"
     inkscape:cy="154"
     inkscape:window-width="2560"
     inkscape:window-height="1335"
     inkscape:window-x="0"
     inkscape:window-y="0"
     inkscape:window-maximized="1"
     inkscape:current-layer="svg3" />
  <g
     filter="url(#filter0_d_117_9593)"
     id="g1">
    <rect
       width="303.759"
       height="300"
       transform="translate(4)"
       fill="none"
       id="rect1"
       x="0"
       y="0" />
    <path
       fill-rule="evenodd"
       clip-rule="evenodd"
       d="M 117.454,60.3505 C 122.914,58.7911 128.565,58 134.244,58 H 198 c 8.759,0 17.311,2.6702 24.513,7.6543 l 0.815,0.5641 c 4.181,2.8935 7.742,6.5934 10.472,10.8821 3.896,6.1196 4.949,8.1476 5.965,15.1412 v 18.5923 h -89 v 76.74 l 14.982,-2.365 13.826,-5.528 c 6.335,-2.533 13.095,-3.834 19.917,-3.834 h 20.458 l -10.114,-34.218 h -36.249 v -15.968 h 48.187 l 19.553,66.154 H 199.49 c -4.79,0 -9.536,0.913 -13.984,2.692 l -15.493,6.195 -19.248,3.038 V 242 H 134.79 V 110.834 h -3.499 c -3.104,0 -6.095,1.156 -8.392,3.243 -2.6,2.363 -4.083,5.714 -4.083,9.227 v 77.635 4.8 c 0,4.255 -1.138,8.433 -3.297,12.101 l -0.538,0.915 c -6.812,11.576 -19.2434,18.683 -32.6781,18.683 V 221.47 c 7.7739,0 14.9673,-4.113 18.9091,-10.811 l 0.538,-0.915 c 0.715,-1.214 1.091,-2.597 1.091,-4.005 v -5.238 c -6.3847,-0.95 -8.6657,-3.427 -13.9335,-7.257 -3.3622,-2.444 -6.3252,-5.394 -8.7837,-8.745 l -1.0746,-1.465 C 72.5202,174.134 69,163.386 69,152.349 v -27.87 c 0,-7.671 1.305,-15.287 3.8593,-22.521 2.5826,-7.3146 7.7686,-14.1376 10.0561,-16.9957 l 3.8124,-4.6684 c 4.4796,-4.5731 5.2589,-6.106 10.4913,-9.8419 l 1.5028,-1.073 c 5.6821,-4.0572 12.0181,-7.1109 18.7321,-9.0285 z m 90.812,167.9625 c 0.613,0 1.185,0.306 1.524,0.816 0.201,0.3 0.308,0.654 0.308,1.015 v 10.716 h 15.974 v -10.716 c 0,-3.514 -1.04,-6.949 -2.99,-9.873 -3.303,-4.952 -8.862,-7.926 -14.816,-7.926 h -16.424 v 15.968 z"
       fill="#7b26d8"
       id="path1" />
  </g>
  <defs
     id="defs3">
    <filter
       id="filter0_d_117_9593"
       x="0"
       y="0"
       width="311.759"
       height="308"
       filterUnits="userSpaceOnUse"
       color-interpolation-filters="sRGB">
      <feFlood
         flood-opacity="0"
         result="BackgroundImageFix"
         id="feFlood1" />
      <feColorMatrix
         in="SourceAlpha"
         type="matrix"
         values="0 0 0 0 0 0 0 0 0 0 0 0 0 0 0 0 0 0 127 0"
         result="hardAlpha"
         id="feColorMatrix1" />
      <feOffset
         dy="4"
         id="feOffset1" />
      <feGaussianBlur
         stdDeviation="2"
         id="feGaussianBlur1" />
      <feComposite
         in2="hardAlpha"
         operator="out"
         id="feComposite1" />
      <feColorMatrix
         type="matrix"
         values="0 0 0 0 0 0 0 0 0 0 0 0 0 0 0 0 0 0 0.25 0"
         id="feColorMatrix2" />
      <feBlend
         mode="normal"
         in2="BackgroundImageFix"
         result="effect1_dropShadow_117_9593"
         id="feBlend2" />
      <feBlend
         mode="normal"
         in="SourceGraphic"
         in2="effect1_dropShadow_117_9593"
         result="shape"
         id="feBlend3" />
    </filter>
  </defs>
</svg>
